<?xml version="1.0" encoding="UTF-8"?>
<svg width="756px" height="1618px" viewBox="0 0 756 1618" version="1.1" xmlns="http://www.w3.org/2000/svg" xmlns:xlink="http://www.w3.org/1999/xlink">
    <!-- Generator: Sketch 46.2 (44496) - http://www.bohemiancoding.com/sketch -->
    <title>intro-bg</title>
    <desc>Created with Sketch.</desc>
    <defs>
        <filter x="-1.6%" y="-1.2%" width="103.1%" height="103.3%" filterUnits="objectBoundingBox" id="filter-1">
            <feOffset dx="0" dy="2" in="SourceAlpha" result="shadowOffsetOuter1"></feOffset>
            <feGaussianBlur stdDeviation="2" in="shadowOffsetOuter1" result="shadowBlurOuter1"></feGaussianBlur>
            <feColorMatrix values="0 0 0 0 0   0 0 0 0 0   0 0 0 0 0  0 0 0 0.5 0" type="matrix" in="shadowBlurOuter1" result="shadowMatrixOuter1"></feColorMatrix>
            <feMerge>
                <feMergeNode in="shadowMatrixOuter1"></feMergeNode>
                <feMergeNode in="SourceGraphic"></feMergeNode>
            </feMerge>
        </filter>
    </defs>
    <g id="Page-1" stroke="none" stroke-width="1" fill="none" fill-rule="evenodd">
        <g id="intro-bg" transform="translate(-118.000000, -70.000000)">
            <g id="Group-3" transform="translate(611.436072, 724.713766) rotate(-17.000000) translate(-611.436072, -724.713766) translate(161.936072, 105.213766)">
                <g id="Rectangle" transform="translate(449.800225, 619.624261) rotate(34.000000) translate(-449.800225, -619.624261) translate(380.800225, -80.875739)">
                    <g id="path-2-link" fill-rule="nonzero" fill="#000000">
                        <polygon id="path-2" points="120.755136 0.124572148 137.255643 29.2368572 113.257176 1366.16947 0.797665283 1400.26832"></polygon>
                    </g>
                    <g id="path-2-link" fill="#BC1B29">
                        <polygon id="path-2" points="120.755136 0.124572148 137.255643 29.2368572 113.257176 1366.16947 0.797665283 1400.26832"></polygon>
                    </g>
                </g>
                <g id="Rectangle" transform="translate(465.336660, 625.543038) rotate(34.000000) translate(-465.336660, -625.543038) translate(415.836660, -58.456962)">
                    <g id="path-4-link" fill="#FBE006">
                        <polygon id="path-4" points="90.5951047 0.275546424 98.7519476 14.8649581 40.2409333 1367.76259 0.53177867 1364.36851"></polygon>
                    </g>
                    <polygon id="Shape" stroke="#2F2833" stroke-width="2" points="91.435062 4.09021353 1.69956354 1363.21789 39.2087841 1366.42394 97.647347 15.2015693"></polygon>
                </g>
            </g>
            <g id="Group-8" filter="url(#filter-1)" transform="translate(122.000000, 1256.000000)">
                <path d="M124,10 L133,52" id="Line-4" stroke="#979797" stroke-linecap="square"></path>
                <g id="Group-7" fill-rule="nonzero">
                    <g id="Group-6">
                        <g id="Group-4">
                            <path d="M124.475396,5.79674417 L117.058177,20.6399497 L148.874025,107.789652 L123.608225,91.862685 L122.650763,97.4071976 L121.426935,102.380738 L146.472061,141.930592 L2.38898364,86.9333057 L0,90.3425158 C20.6092123,113.970726 36.7804157,130.911773 48.5136101,141.165658 C60.2468045,151.419543 83.7029948,169.109707 118.882181,194.23615 L52.8956597,191.611442 L50.9111573,193.20071 L58.0106081,205.641054 L58.0106081,208.095353 L139.317571,236.628917 L54.2036036,368.341748 L55.3827781,371.09686 L55.3827781,373.472189 L75.8467257,374.017704 L162.618599,301.720312 L151.344009,371.817979 L159.445057,382.997924 L162.618599,382.997924 L163.20585,380.698447 L195.887832,316.34064 L196.859833,358.980188 L198.996989,359.969908 L212.274255,348.393036 L225.705213,294.915399 L322.790061,423.78272 L327.628778,425.653577 L332.084822,425.056627 L334.910999,421.479607 L339.475562,408.502579 L338.113098,405.139607 L295.894913,296.315555 L322.790061,318.860401 L323.830601,304.938332 L322.076117,304.938332 L305.217193,273.948912 L396.525591,329.363387 L399.359557,327.017671 L399.359557,324.863146 L401.205424,324.863146 L401.205424,322.126218 L399.359557,322.126218 L327.628778,224.2239 L392.524395,238.696679 L394.590416,236.628917 L393.968896,232.298565 L391.359239,225.767968 L389.116679,225.767968 L326.182718,190.649777 L435.952389,146.256268 L447.831365,120.107385 L333.967036,128.577937 L366.246613,98.654609 L363.741841,95.941061 L314.694205,114.338432 L326.182718,0 L240.11025,95.941061 L230.886104,61.3933221 L215.639394,97.4071976 L201.814339,44.4641664 L196.859833,42.8354137 L190.754191,93.2467353 L124.475396,5.79674417 Z" id="Line-4" fill="#2E2B26"></path>
                            <path d="M123.288717,4.45296167 L154.702023,115.212895 L129.681447,96.5109026 L154.702023,149.005704 C127.647738,138.881484 107.524509,131.136106 94.3323344,125.769568 C81.1401603,120.40303 51.7324548,109.261506 6.10921825,92.3449979 C25.9391507,113.988452 40.9006963,129.174801 50.993855,137.904045 C61.0870136,146.633287 88.1124969,165.392265 132.070306,194.180976 L132.070306,198.262306 L65.3457979,192.89452 L74.0907966,199.069591 L145.309112,231.356697 L58.0480574,368.523201 L175.743384,282.920816 L178.564946,287.306776 L175.743384,291.70473 L162.298414,372.382654 L206.657106,291.70473 L206.657106,347.876685 L211.044071,342.515667 L227.484403,279.663428 L230.974798,279.663428 L327.995053,414.125436 L284.007935,277.733701 L291.140948,276.430026 L296.660613,290.034059 L318.748864,310.061719 L296.660613,266.270477 L302.898254,263.417264 L387.973019,311.879907 L318.748864,214.880262 L323.578122,214.880262 L327.995053,217.517595 L384.884163,231.356697 L318.748864,190.346708 L318.748864,184.902936 L440.689718,123.148087 L325.608591,134.825991 L323.578122,131.425882 L354.995265,102.999294 L308.999582,119.568004 C310.409309,97.1145103 311.898115,80.2705781 313.466001,69.0362068 C315.033886,57.8018355 318.881837,36.4063088 325.009851,4.84962669 L242.060875,102.999294 L238.836575,102.999294 L230.974798,71.8022467 L220.681012,101.706413 L213.611525,101.706413 L200.628026,49.246393 L195.324113,95.092092 L190.077733,95.092092 L123.288717,4.45296167 Z" id="Line-3" fill="#D14621"></path>
                        </g>
                    </g>
                </g>
                <g id="Group-5" transform="translate(108.000000, 87.000000)" fill-rule="nonzero">
                    <path d="M190.607252,0.799856655 C187.436587,6.51283335 180.052923,15.6179884 174.305507,25.9933119 C169.350334,34.9384645 159.506178,51.9490066 144.77304,77.0249379 L174.160929,60.9582732 L162.840551,80.8456082 C186.300431,72.6461727 204.217292,66.7299293 216.591133,63.0968783 C228.964976,59.4638273 243.982769,55.7102142 261.644513,51.836039 C235.380285,66.8414565 215.493398,78.5152642 201.983851,86.8574619 C188.474304,95.1996594 176.205609,103.382049 165.177767,111.40463 C175.021988,124.207252 182.716061,133.551314 188.259986,139.436816 C193.803911,145.322319 207.627729,158.821928 229.731441,179.935645 L157.58549,132.024615 L154.412507,132.024615 C158.048894,139.267035 161.033746,144.819431 163.367062,148.681802 C165.700379,152.544174 169.664289,158.494161 175.258793,166.531766 C163.515906,156.730741 154.734019,149.582313 148.913132,145.086487 C143.092244,140.590661 139.562841,138.230326 138.324922,138.005484 L137.479103,140.469012 L188.608674,266.087333 C188.847818,268.106396 188.871785,269.483429 188.680576,270.218433 C188.489368,270.953437 187.954868,271.538888 187.077075,271.974787 L119.030336,155.429291 L119.030336,166.531766 L116.01662,166.531766 L110.992729,160.467519 L107.532135,188.334492 L100.757073,188.334492 L92.046057,159.067068 L83.0953665,183.161933 L81.4168709,181.294407 L77.6818113,157.235055 L32.8982072,207.343265 L23.3668856,207.343265 L58.3416094,144.003338 C26.5050779,133.552707 10.1347805,128.293167 9.23071727,128.224713 C8.32665393,128.156261 5.28098128,127.677092 0.0936991885,126.787205 C2.52601081,124.372829 4.33774537,122.931718 5.52890285,122.463872 C7.31563907,121.762102 21.8965908,124.044349 30.8184493,124.520543 C36.766355,124.838005 47.2695189,124.993697 62.3279408,124.987618 L46.8820661,113.25131 L64.2167321,112.382011 L37.8594735,84.9195787 C37.8212546,83.9893142 37.9408342,83.4012886 38.2182124,83.1555035 C38.4955905,82.9097184 39.1197756,82.8386921 40.0907676,82.9424254 L77.6818113,98.1953008 L67.6912421,40.6710298 L93.8784088,69.7284644 L98.6123706,70.5738306 L113.029964,42.7215252 L126.730079,40.6710298 L120.108872,65.4707528 C133.741198,48.1990145 144.703867,35.6361273 152.99688,27.7820912 C165.436398,16.001037 192.26434,-2.18592432 190.607252,0.799856655 Z" id="Line-5" fill="#36322F"></path>
                    <path d="M72.0153072,51.8190364 C79.9345162,86.415372 83.894121,103.71354 83.894121,103.71354 C83.894121,103.71354 82.235318,103.367413 78.9177114,102.67516 L47.4585898,89.6496358 L67.7687855,110.697461 L71.333816,111.63533 L71.333816,114.711133 L54.7186784,115.503405 L72.0153072,128.140672 L71.333816,130.008215 C36.8710132,128.922859 19.8192941,128.300345 20.1786585,128.140672 C20.538023,127.981 34.2948663,132.252038 61.4491883,140.95379 L62.2710137,143.644488 L33.7400395,193.415152 L76.9830764,152.469776 L80.5152844,152.469776 C81.8214523,167.024377 82.6565329,174.082129 83.0205262,173.643028 C83.3845195,173.203928 86.6063859,165.541521 92.6861271,150.655808 C100.254663,171.135534 104.269109,181.041555 104.729466,180.37387 C105.189823,179.706185 106.566265,169.800164 108.858792,150.655808 L114.796511,159.861789 L116.312659,147.543447 L175.270739,244.370126 L133.306518,142.398409 L133.306518,136.884653 L137.351262,134.915004 L140.786265,134.093739 L156.720335,145.935583 L149.18883,130.008215 L149.18883,128.140672 L158.1721,128.140672 L198.67067,155.713235 L161.333793,112.650093 L162.829111,108.176311 C175.076456,98.4201827 184.442657,91.5034056 190.927712,87.4259811 C197.412766,83.3485565 213.147798,74.4831408 238.132805,60.8297337 C221.03844,65.5367682 208.771445,69.2720629 201.331819,72.0356177 C193.892193,74.7991725 181.901664,80.07468 165.360232,87.86214 L158.1721,86.6753084 L158.1721,82.0912271 L164.063111,71.12044 L144.07041,82.0912271 L140.786265,75.5425381 L178.870486,12.8925767 C165.922188,22.5285144 156.324971,30.3959695 150.078834,36.4949421 C143.832698,42.5939146 134.227269,53.4766765 121.262547,69.1432277 L116.312659,65.9508208 L122.692852,48.7937608 L99.7991454,75.5425381 L90.678272,74.2391032 L72.0153072,51.8190364 Z" id="Line-6" fill="#F4D314"></path>
                </g>
            </g>
        </g>
    </g>
</svg>