<?xml version="1.0" encoding="UTF-8"?>
<svg width="887px" height="1304px" viewBox="0 0 887 1304" version="1.1" xmlns="http://www.w3.org/2000/svg" xmlns:xlink="http://www.w3.org/1999/xlink">
    <!-- Generator: Sketch 46.2 (44496) - http://www.bohemiancoding.com/sketch -->
    <title>Group 10</title>
    <desc>Created with Sketch.</desc>
    <defs>
        <filter x="-1.5%" y="-1.0%" width="103.0%" height="102.3%" filterUnits="objectBoundingBox" id="filter-1">
            <feOffset dx="0" dy="2" in="SourceAlpha" result="shadowOffsetOuter1"></feOffset>
            <feGaussianBlur stdDeviation="2" in="shadowOffsetOuter1" result="shadowBlurOuter1"></feGaussianBlur>
            <feColorMatrix values="0 0 0 0 0   0 0 0 0 0   0 0 0 0 0  0 0 0 0.5 0" type="matrix" in="shadowBlurOuter1" result="shadowMatrixOuter1"></feColorMatrix>
            <feMerge>
                <feMergeNode in="shadowMatrixOuter1"></feMergeNode>
                <feMergeNode in="SourceGraphic"></feMergeNode>
            </feMerge>
        </filter>
        <polygon id="path-2" points="413.915929 -60.9000993 429.071964 -37.5534869 407.028908 1034.60033 303.732671 1061.94592"></polygon>
        <filter x="-3.6%" y="-0.4%" width="107.2%" height="100.8%" filterUnits="objectBoundingBox" id="filter-3">
            <feMorphology radius="1" operator="dilate" in="SourceAlpha" result="shadowSpreadOuter1"></feMorphology>
            <feOffset dx="0" dy="0" in="shadowSpreadOuter1" result="shadowOffsetOuter1"></feOffset>
            <feGaussianBlur stdDeviation="0.5" in="shadowOffsetOuter1" result="shadowBlurOuter1"></feGaussianBlur>
            <feColorMatrix values="0 0 0 0 0.00204613095   0 0 0 0 0.00204613095   0 0 0 0 0.00204613095  0 0 0 1 0" type="matrix" in="shadowBlurOuter1"></feColorMatrix>
        </filter>
        <polygon id="path-4" points="418.213357 -42.7790254 425.705575 -31.079039 371.962076 1053.87793 335.488449 1051.15605"></polygon>
    </defs>
    <g id="Page-1" stroke="none" stroke-width="1" fill="none" fill-rule="evenodd">
        <g id="Desktop" transform="translate(-350.000000, 0.000000)">
            <g id="Group-10" transform="translate(350.000000, -73.000000)">
                <g id="Group-9">
                    <g id="Group-3" filter="url(#filter-1)" transform="translate(589.250018, 547.870389) rotate(-8.000000) translate(-589.250018, -547.870389) translate(222.750018, 46.870389)">
                        <g id="Rectangle" transform="translate(366.402317, 500.522910) rotate(34.000000) translate(-366.402317, -500.522910) ">
                            <use fill="black" fill-opacity="1" filter="url(#filter-3)" xlink:href="#path-2"></use>
                            <use fill="#BC1B29" fill-rule="evenodd" xlink:href="#path-2"></use>
                        </g>
                        <g id="Rectangle" transform="translate(380.597012, 505.549454) rotate(34.000000) translate(-380.597012, -505.549454) ">
                            <use fill="#FBE006" fill-rule="evenodd" xlink:href="#path-4"></use>
                            <path stroke="#2F2833" stroke-width="2" d="M418.984874,-39.7198511 L336.561082,1050.23331 L371.014027,1052.8044 L424.690978,-30.8090935 L418.984874,-39.7198511 Z"></path>
                        </g>
                    </g>
                    <g id="Group-8" transform="translate(0.000000, 856.000000)">
                        <path d="M151.928571,11.9137931 L163.071429,63.0862069" id="Line-4" stroke="#979797" stroke-linecap="square"></path>
                        <g id="Group-7">
                            <g id="Group-6">
                                <g id="Group-4">
                                    <path d="M152.260082,7.08944534 L143.187234,25.2427554 L182.104834,131.82725 L151.199347,112.348495 L150.028165,119.12946 L148.531161,125.212123 L179.166717,173.58178 L2.92223892,106.319841 L0,110.489321 C25.2094829,139.386733 44.9903299,160.105713 59.3425409,172.646262 C73.6947519,185.186812 102.386699,206.821965 145.418382,237.551723 L64.7027266,234.341693 L62.2752549,236.285375 L70.9594046,251.499975 L70.9594046,254.501594 L170.415243,289.398276 L66.3026222,450.483687 L67.7450053,453.853202 L67.7450053,456.758241 L92.7767984,457.425408 L198.917394,369.005358 L185.126154,454.735134 L195.035471,468.408259 L198.917394,468.408259 L199.635727,465.595988 L239.612794,386.886088 L240.80176,439.034455 L243.41596,440.244887 L259.656901,426.086319 L276.085841,360.682918 L394.841414,518.288256 L400.760202,520.576323 L406.210898,519.846251 L409.667918,515.471538 L415.251357,499.600572 L413.584772,495.487642 L361.942885,362.395315 L394.841414,389.967767 L396.114217,372.941012 L393.968108,372.941012 L373.346031,335.040805 L485.035768,402.812968 L488.502315,399.944147 L488.502315,397.309153 L490.760206,397.309153 L490.760206,393.961877 L488.502315,393.961877 L400.760202,274.226883 L480.141447,291.927159 L482.668634,289.398276 L481.908382,284.102235 L478.716212,276.115285 L475.97308,276.115285 L398.991361,233.165572 L533.26319,178.872102 L547.793723,146.891896 L408.513249,157.251421 L447.998089,120.65505 L444.934216,117.336368 L384.938447,139.836439 L398.991361,0 L293.706288,117.336368 L282.423181,75.0843211 L263.773187,119.12946 L246.862182,54.3798842 L240.80176,52.3879121 L233.333251,114.041195 L152.260082,7.08944534 Z" id="Line-4" fill="#2E2B26"></path>
                                    <path d="M150.80852,5.44599303 L189.233724,140.905912 L158.628199,118.033287 L189.233724,182.234675 C156.140537,169.852707 131.525516,160.380073 115.388659,153.816772 C99.2518032,147.253471 63.2798778,133.627335 7.47288304,112.938366 C31.7291397,139.408412 50.030316,157.981388 62.3764119,168.657294 C74.7225077,179.333199 107.780465,202.275516 161.550285,237.484245 L161.550285,242.475731 L79.9319135,235.910903 L90.6289208,243.463045 L177.744182,282.950327 L71.0052131,450.705605 L214.971818,346.013486 L218.423193,351.377536 L214.971818,356.756254 L198.525739,455.425734 L252.785924,356.756254 L252.785924,425.454819 L258.152123,418.898269 L278.262172,342.029685 L282.531672,342.029685 L401.208234,506.477352 L347.402563,339.66962 L356.127767,338.07522 L362.8795,354.713016 L389.898164,379.206938 L362.8795,325.650044 L370.509472,322.160551 L474.574139,381.430591 L389.898164,262.799569 L395.805381,262.799569 L401.208234,266.02504 L470.795807,282.950327 L389.898164,232.794918 L389.898164,226.137159 L539.057959,150.610688 L398.28908,164.89282 L395.805381,160.734471 L434.23528,125.96862 L377.972703,146.23223 C379.697101,118.771502 381.51823,98.1712939 383.43609,84.431605 C385.35395,70.6919162 390.060818,44.5250866 397.556693,5.93111621 L296.09232,125.96862 L292.148311,125.96862 L282.531672,87.8144848 L269.940166,124.387421 L261.292669,124.387421 L245.411067,60.2285698 L238.923245,116.298075 L232.505799,116.298075 L150.80852,5.44599303 Z" id="Line-3" fill="#D14621"></path>
                                </g>
                            </g>
                        </g>
                        <g id="Group-5" transform="translate(132.000000, 106.000000)">
                            <path d="M232.80275,0.979236273 C228.930183,7.973432 219.911967,19.120552 212.892222,31.8226943 C206.840102,42.773929 194.816706,63.5993353 176.822034,94.298913 L212.715638,74.6290624 L198.889223,98.9764248 C227.542511,88.9381452 249.4257,81.6950973 264.538789,77.2472812 C279.651879,72.799465 297.994222,68.204049 319.565818,63.4610331 C287.487371,81.8316361 263.198043,96.1234668 246.697833,106.336525 C230.197623,116.549583 215.212957,126.566994 201.743837,136.388756 C213.767313,152.062555 223.164655,163.50216 229.935861,170.707573 C236.707067,177.912986 253.591119,194.440081 280.588019,220.288859 L192.470828,161.633077 L188.595428,161.633077 C193.036817,170.499716 196.682438,177.297318 199.53229,182.025883 C202.382142,186.754448 207.223559,194.038808 214.056541,203.878964 C199.714084,191.879914 188.988115,183.128347 181.878634,177.624265 C174.769153,172.120184 170.458432,169.23051 168.94647,168.955243 L167.913408,171.971254 L230.361739,325.761331 C230.653823,328.233198 230.683096,329.919051 230.449559,330.818891 C230.216022,331.71873 229.563197,332.435477 228.491084,332.969133 L145.380563,190.286595 L145.380563,203.878964 L141.699688,203.878964 L135.563638,196.45472 L131.336959,230.571272 L123.062074,230.571272 L112.422665,194.740197 L101.490524,224.23869 L99.440453,221.952344 L94.8785481,192.497328 L40.1810164,253.843041 L28.5397076,253.843041 L71.2569275,176.298204 C32.3726142,163.503866 12.3783579,157.064796 11.2741585,156.980991 C10.169959,156.897187 6.45005347,156.310557 0.114441757,155.2211 C3.08520404,152.265265 5.29800961,150.500963 6.75285844,149.928196 C8.93513169,149.069044 26.7439277,151.863119 37.6408541,152.446106 C44.9054718,152.834764 57.7337635,153.025372 76.1257292,153.017929 L57.2605388,138.649582 L78.4326499,137.58533 L46.2405783,103.964043 C46.1938987,102.825153 46.3399502,102.105254 46.6787327,101.804348 C47.0175151,101.503442 47.7798786,101.416487 48.965823,101.543484 L94.8785481,120.217041 L82.6763262,49.7921063 L114.660652,85.366098 L120.44259,86.40105 L138.051864,52.3024555 L154.784829,49.7921063 L146.697859,80.1535319 C163.348028,59.0083523 176.737547,43.6280529 186.866418,34.0126337 C202.059723,19.5895048 234.826675,-2.67614999 232.80275,0.979236273 Z" id="Line-5" fill="#36322F"></path>
                            <path d="M87.9576271,63.4402174 C97.6299435,105.79529 102.466102,126.972826 102.466102,126.972826 C102.466102,126.972826 100.440083,126.549076 96.3880444,125.701575 L57.9646898,109.754885 L82.7710357,135.522995 L87.1252714,136.671194 L87.1252714,140.436792 L66.8319736,141.406742 L87.9576271,156.878102 L87.1252714,159.164469 C45.0332986,157.835706 24.2067714,157.073584 24.6456898,156.878102 C25.0846083,156.682621 41.8868596,161.911503 75.0524437,172.56475 L76.0561999,175.858877 L41.2092085,236.791344 L94.0251315,186.663365 L98.3392786,186.663365 C99.9345982,204.48205 100.954544,213.122606 101.399116,212.585031 C101.843688,212.047456 105.778792,202.666641 113.20443,184.442588 C122.448443,209.515194 127.351584,221.642786 127.913852,220.825363 C128.47612,220.00794 130.15727,207.880348 132.957303,184.442588 L140.209479,195.713146 L142.061263,180.632235 L214.071132,299.17372 L162.817121,174.333346 L162.817121,167.583049 L167.757267,165.171678 L171.95269,164.166232 L191.41415,178.663784 L182.215365,159.164469 L182.215365,156.878102 L193.187298,156.878102 L242.6512,190.634218 L197.048907,137.913533 L198.87525,132.43644 C213.83384,120.492356 225.273474,112.02439 233.194152,107.032543 C241.114829,102.040696 260.333188,91.1870805 290.849228,74.471696 C269.970614,80.2343523 254.988024,84.8073417 245.901458,88.1906643 C236.814892,91.5739869 222.169971,98.0326046 201.966696,107.566517 L193.187298,106.113521 L193.187298,100.501392 L200.382426,87.0702446 L175.96386,100.501392 L171.95269,92.4840632 L218.467769,15.7839266 C202.653054,27.580865 190.931262,37.2127127 183.302393,44.6794695 C175.673524,52.1462263 163.941703,65.4696076 148.106928,84.6496133 L142.061263,80.7412622 L149.853865,59.7364792 L121.892086,92.4840632 L110.752088,90.8883139 L87.9576271,63.4402174 Z" id="Line-6" fill="#F4D314"></path>
                        </g>
                    </g>
                </g>
            </g>
        </g>
    </g>
</svg>